<svg xmlns="http://www.w3.org/2000/svg" width="1366" height="768" viewBox="0 0 1366 768">
  <!-- Background -->
  <rect width="1366" height="768" fill="#f4efe7"/>

  <!-- Top bar -->
  <rect x="18" y="20" width="1330" height="70" rx="10" fill="#ffffff" stroke="#d9d3c8"/>
  <text x="40" y="62" font-family="Menlo, monospace" font-size="24" fill="#1c1c1c">Centre de controle — CP-0015 Degraded State (fail-open)</text>

  <!-- Sidebar -->
  <rect x="18" y="106" width="260" height="640" rx="10" fill="#ffffff" stroke="#d9d3c8"/>
  <!-- RuntimeContextPanel -->
  <rect x="28" y="116" width="240" height="88" rx="6" fill="#fff9f0" stroke="#e8c55a"/>
  <text x="38" y="140" font-family="Menlo, monospace" font-size="13" fill="#1c1c1c" font-weight="bold">Project: cockpit</text>
  <text x="38" y="160" font-family="Menlo, monospace" font-size="11" fill="#5e6167">stamp:v5.0.1@a3f7e2c | head:b91d4f0</text>
  <text x="38" y="180" font-family="Menlo, monospace" font-size="12" fill="#d94040">⚠ Build mismatch: running a3f7e2c, repo b91d4f0</text>
  <rect x="38" y="186" width="90" height="12" rx="3" fill="#d94040" opacity="0.15"/>

  <!-- Fail-open warning banner (StatusBanner) -->
  <rect x="28" y="214" width="240" height="48" rx="6" fill="#fff3f0" stroke="#d94040"/>
  <text x="38" y="234" font-family="Menlo, monospace" font-size="12" fill="#d94040" font-weight="bold">⚠ FAIL-OPEN MODE</text>
  <text x="38" y="252" font-family="Menlo, monospace" font-size="10" fill="#8b4040">Network unreachable — local cache only</text>

  <!-- Sidebar project list -->
  <text x="34" y="290" font-family="Menlo, monospace" font-size="16" fill="#2c5dff">PROJECTS</text>
  <rect x="28" y="298" width="240" height="28" rx="4" fill="#e8eaff" stroke="#d9d3c8"/>
  <text x="38" y="318" font-family="Menlo, monospace" font-size="13" fill="#1c1c1c">cockpit</text>

  <!-- Center panel -->
  <rect x="300" y="106" width="820" height="640" rx="10" fill="#ffffff" stroke="#d9d3c8"/>
  <text x="322" y="138" font-family="Menlo, monospace" font-size="16" fill="#1c1c1c">Tabs: Overview / Vulgarisation / Pilotage</text>

  <!-- Agent cards with degraded states -->
  <!-- Card 1: Normal agent -->
  <rect x="322" y="156" width="240" height="130" rx="8" fill="#ffffff" stroke="#d9d3c8"/>
  <rect x="322" y="156" width="4" height="130" rx="2" fill="#2c5dff"/>
  <text x="338" y="180" font-family="Menlo, monospace" font-size="14" fill="#1c1c1c" font-weight="bold">Victor</text>
  <text x="338" y="200" font-family="Menlo, monospace" font-size="11" fill="#5e6167">⚡ En action</text>
  <rect x="338" y="210" width="200" height="8" rx="4" fill="#e0e0e0"/>
  <rect x="338" y="210" width="140" height="8" rx="4" fill="#2c5dff"/>
  <text x="338" y="240" font-family="Menlo, monospace" font-size="10" fill="#5e6167">ETA: 12m | Last update: 2m ago</text>

  <!-- Card 2: Blocked agent with blockers -->
  <rect x="580" y="156" width="240" height="130" rx="8" fill="#ffffff" stroke="#d94040"/>
  <rect x="580" y="156" width="4" height="130" rx="2" fill="#d94040"/>
  <text x="596" y="180" font-family="Menlo, monospace" font-size="14" fill="#1c1c1c" font-weight="bold">Agent 3</text>
  <text x="596" y="200" font-family="Menlo, monospace" font-size="11" fill="#d94040">🔴 Bloque (blockers)</text>
  <text x="596" y="218" font-family="Menlo, monospace" font-size="10" fill="#d94040" font-weight="bold">⚠ BLOCKERS</text>
  <text x="596" y="234" font-family="Menlo, monospace" font-size="10" fill="#8b4040">• profile.json missing</text>
  <text x="596" y="250" font-family="Menlo, monospace" font-size="10" fill="#8b4040">• skills catalog unreachable</text>
  <text x="596" y="268" font-family="Menlo, monospace" font-size="10" fill="#5e6167">ETA: -- | Last update: 45m ago</text>

  <!-- Card 3: Idle agent -->
  <rect x="838" y="156" width="240" height="130" rx="8" fill="#ffffff" stroke="#d9d3c8"/>
  <rect x="838" y="156" width="4" height="130" rx="2" fill="#8b9dc3"/>
  <text x="854" y="180" font-family="Menlo, monospace" font-size="14" fill="#1c1c1c" font-weight="bold">Agent 1</text>
  <text x="854" y="200" font-family="Menlo, monospace" font-size="11" fill="#5e6167">💤 Repos</text>
  <rect x="854" y="210" width="200" height="8" rx="4" fill="#e0e0e0"/>
  <text x="854" y="240" font-family="Menlo, monospace" font-size="10" fill="#5e6167">ETA: -- | Last update: 16m ago</text>

  <!-- Pilotage report card area -->
  <rect x="322" y="306" width="520" height="120" rx="8" fill="#f8f6f2" stroke="#d9d3c8"/>
  <text x="338" y="330" font-family="Menlo, monospace" font-size="14" fill="#1c1c1c" font-weight="bold">Now / Next / Blockers</text>
  <text x="338" y="352" font-family="Menlo, monospace" font-size="11" fill="#2c5dff">▸ Now: V2-WAVE-03 sprint closeout</text>
  <text x="338" y="370" font-family="Menlo, monospace" font-size="11" fill="#5e6167">▸ Next: Run closeout verification suite</text>
  <text x="338" y="388" font-family="Menlo, monospace" font-size="11" fill="#d94040">▸ Blockers: queued runtime above gate (≤3)</text>
  <text x="338" y="414" font-family="Menlo, monospace" font-size="10" fill="#5e6167">📊 Issues 3/3 Done | 🔵 2 active | 🔴 1 blocked | 💤 1 idle</text>

  <!-- Chatroom panel -->
  <rect x="1140" y="106" width="208" height="640" rx="10" fill="#ffffff" stroke="#d9d3c8"/>
  <text x="1158" y="138" font-family="Menlo, monospace" font-size="16" fill="#2c5dff">Chatroom</text>
  <text x="1158" y="164" font-family="Menlo, monospace" font-size="10" fill="#d94040">⚠ Offline — cached messages only</text>

  <!-- Footer annotation -->
  <text x="40" y="740" font-family="Menlo, monospace" font-size="12" fill="#5e6167">CP-0015 Degraded-state capture — fail-open + profile missing + build mismatch</text>
  <text x="40" y="756" font-family="Menlo, monospace" font-size="11" fill="#8b9dc3">Generated by @agent-6 (AG) — 2026-02-19T21:35+07:00</text>
</svg>
